<svg id="visual" viewBox="0 0 2400 400" width="2400" height="400" xmlns="http://www.w3.org/2000/svg" xmlns:xlink="http://www.w3.org/1999/xlink" version="1.1"><path d="M0 73L28.5 65.7C57 58.3 114 43.7 171.2 40.3C228.3 37 285.7 45 342.8 51C400 57 457 61 514.2 59C571.3 57 628.7 49 685.8 45.7C743 42.3 800 43.7 857.2 45C914.3 46.3 971.7 47.7 1028.8 49.7C1086 51.7 1143 54.3 1200 53C1257 51.7 1314 46.3 1371.2 45C1428.3 43.7 1485.7 46.3 1542.8 46.3C1600 46.3 1657 43.7 1714.2 41C1771.3 38.3 1828.7 35.7 1885.8 39.7C1943 43.7 2000 54.3 2057.2 55C2114.3 55.7 2171.7 46.3 2228.8 41.7C2286 37 2343 37 2371.5 37L2400 37L2400 0L2371.5 0C2343 0 2286 0 2228.8 0C2171.7 0 2114.3 0 2057.2 0C2000 0 1943 0 1885.8 0C1828.7 0 1771.3 0 1714.2 0C1657 0 1600 0 1542.8 0C1485.7 0 1428.3 0 1371.2 0C1314 0 1257 0 1200 0C1143 0 1086 0 1028.8 0C971.7 0 914.3 0 857.2 0C800 0 743 0 685.8 0C628.7 0 571.3 0 514.2 0C457 0 400 0 342.8 0C285.7 0 228.3 0 171.2 0C114 0 57 0 28.5 0L0 0Z" fill="#151519"></path><path d="M0 153L28.5 146.3C57 139.7 114 126.3 171.2 117C228.3 107.7 285.7 102.3 342.8 99.7C400 97 457 97 514.2 103C571.3 109 628.7 121 685.8 126.3C743 131.7 800 130.3 857.2 131.7C914.3 133 971.7 137 1028.8 135C1086 133 1143 125 1200 115.7C1257 106.3 1314 95.7 1371.2 92.3C1428.3 89 1485.7 93 1542.8 97C1600 101 1657 105 1714.2 103.7C1771.3 102.3 1828.7 95.7 1885.8 97.7C1943 99.7 2000 110.3 2057.2 116.3C2114.3 122.3 2171.7 123.7 2228.8 123.7C2286 123.7 2343 122.3 2371.5 121.7L2400 121L2400 35L2371.5 35C2343 35 2286 35 2228.8 39.7C2171.7 44.3 2114.3 53.7 2057.2 53C2000 52.3 1943 41.7 1885.8 37.7C1828.7 33.7 1771.3 36.3 1714.2 39C1657 41.7 1600 44.3 1542.8 44.3C1485.7 44.3 1428.3 41.7 1371.2 43C1314 44.3 1257 49.7 1200 51C1143 52.3 1086 49.7 1028.8 47.7C971.7 45.7 914.3 44.3 857.2 43C800 41.7 743 40.3 685.8 43.7C628.7 47 571.3 55 514.2 57C457 59 400 55 342.8 49C285.7 43 228.3 35 171.2 38.3C114 41.7 57 56.3 28.5 63.7L0 71Z" fill="#1a1f45"></path><path d="M0 297L28.5 287.7C57 278.3 114 259.7 171.2 252.3C228.3 245 285.7 249 342.8 253.7C400 258.3 457 263.7 514.2 259C571.3 254.3 628.7 239.7 685.8 226.3C743 213 800 201 857.2 194.3C914.3 187.7 971.7 186.3 1028.8 197C1086 207.7 1143 230.3 1200 237C1257 243.7 1314 234.3 1371.2 224.3C1428.3 214.3 1485.7 203.7 1542.8 196.3C1600 189 1657 185 1714.2 177.7C1771.3 170.3 1828.7 159.7 1885.8 157C1943 154.3 2000 159.7 2057.2 169.7C2114.3 179.7 2171.7 194.3 2228.8 209C2286 223.7 2343 238.3 2371.5 245.7L2400 253L2400 119L2371.5 119.7C2343 120.3 2286 121.7 2228.8 121.7C2171.7 121.7 2114.3 120.3 2057.2 114.3C2000 108.3 1943 97.7 1885.8 95.7C1828.7 93.7 1771.3 100.3 1714.2 101.7C1657 103 1600 99 1542.8 95C1485.7 91 1428.3 87 1371.2 90.3C1314 93.7 1257 104.3 1200 113.7C1143 123 1086 131 1028.8 133C971.7 135 914.3 131 857.2 129.7C800 128.3 743 129.7 685.8 124.3C628.7 119 571.3 107 514.2 101C457 95 400 95 342.8 97.7C285.7 100.3 228.3 105.7 171.2 115C114 124.3 57 137.7 28.5 144.3L0 151Z" fill="#1b2674"></path><path d="M0 337L28.5 330.3C57 323.7 114 310.3 171.2 305C228.3 299.7 285.7 302.3 342.8 305.7C400 309 457 313 514.2 305.7C571.3 298.3 628.7 279.7 685.8 261.7C743 243.7 800 226.3 857.2 223C914.3 219.7 971.7 230.3 1028.8 244.3C1086 258.3 1143 275.7 1200 278.3C1257 281 1314 269 1371.2 261C1428.3 253 1485.7 249 1542.8 242.3C1600 235.7 1657 226.3 1714.2 219C1771.3 211.7 1828.7 206.3 1885.8 205.7C1943 205 2000 209 2057.2 219C2114.3 229 2171.7 245 2228.8 255C2286 265 2343 269 2371.5 271L2400 273L2400 251L2371.5 243.7C2343 236.3 2286 221.7 2228.8 207C2171.7 192.3 2114.3 177.7 2057.2 167.7C2000 157.7 1943 152.3 1885.8 155C1828.7 157.7 1771.3 168.3 1714.2 175.7C1657 183 1600 187 1542.8 194.3C1485.7 201.7 1428.3 212.3 1371.2 222.3C1314 232.3 1257 241.7 1200 235C1143 228.3 1086 205.7 1028.8 195C971.7 184.3 914.3 185.7 857.2 192.3C800 199 743 211 685.8 224.3C628.7 237.7 571.3 252.3 514.2 257C457 261.7 400 256.3 342.8 251.7C285.7 247 228.3 243 171.2 250.3C114 257.7 57 276.3 28.5 285.7L0 295Z" fill="#272aa4"></path><path d="M0 353L28.5 347C57 341 114 329 171.2 328.3C228.3 327.7 285.7 338.3 342.8 344.3C400 350.3 457 351.7 514.2 341.7C571.3 331.7 628.7 310.3 685.8 295C743 279.7 800 270.3 857.2 266.3C914.3 262.3 971.7 263.7 1028.8 279.7C1086 295.7 1143 326.3 1200 332.3C1257 338.3 1314 319.7 1371.2 307.7C1428.3 295.7 1485.7 290.3 1542.8 287C1600 283.7 1657 282.3 1714.2 272.3C1771.3 262.3 1828.7 243.7 1885.8 240.3C1943 237 2000 249 2057.2 257.7C2114.3 266.3 2171.7 271.7 2228.8 284.3C2286 297 2343 317 2371.5 327L2400 337L2400 271L2371.5 269C2343 267 2286 263 2228.8 253C2171.7 243 2114.3 227 2057.2 217C2000 207 1943 203 1885.8 203.7C1828.7 204.3 1771.3 209.7 1714.2 217C1657 224.3 1600 233.7 1542.8 240.3C1485.7 247 1428.3 251 1371.2 259C1314 267 1257 279 1200 276.3C1143 273.7 1086 256.3 1028.8 242.3C971.7 228.3 914.3 217.7 857.2 221C800 224.3 743 241.7 685.8 259.7C628.7 277.7 571.3 296.3 514.2 303.7C457 311 400 307 342.8 303.7C285.7 300.3 228.3 297.7 171.2 303C114 308.3 57 321.7 28.5 328.3L0 335Z" fill="#4525d3"></path><path d="M0 401L28.5 401C57 401 114 401 171.2 401C228.3 401 285.7 401 342.8 401C400 401 457 401 514.2 401C571.3 401 628.7 401 685.8 401C743 401 800 401 857.2 401C914.3 401 971.7 401 1028.8 401C1086 401 1143 401 1200 401C1257 401 1314 401 1371.2 401C1428.3 401 1485.7 401 1542.8 401C1600 401 1657 401 1714.2 401C1771.3 401 1828.7 401 1885.8 401C1943 401 2000 401 2057.2 401C2114.3 401 2171.7 401 2228.8 401C2286 401 2343 401 2371.5 401L2400 401L2400 335L2371.5 325C2343 315 2286 295 2228.8 282.3C2171.7 269.7 2114.3 264.3 2057.2 255.7C2000 247 1943 235 1885.8 238.3C1828.7 241.7 1771.3 260.3 1714.2 270.3C1657 280.3 1600 281.7 1542.8 285C1485.7 288.3 1428.3 293.7 1371.2 305.7C1314 317.7 1257 336.3 1200 330.3C1143 324.3 1086 293.7 1028.8 277.7C971.7 261.7 914.3 260.3 857.2 264.3C800 268.3 743 277.7 685.8 293C628.7 308.3 571.3 329.7 514.2 339.7C457 349.7 400 348.3 342.8 342.3C285.7 336.3 228.3 325.7 171.2 326.3C114 327 57 339 28.5 345L0 351Z" fill="#6f00ff"></path></svg>