<svg id="visual" viewBox="0 0 2400 400" width="2400" height="400" xmlns="http://www.w3.org/2000/svg" xmlns:xlink="http://www.w3.org/1999/xlink" version="1.1"><path d="M0 41L28.5 37C57 33 114 25 171.2 27.7C228.3 30.3 285.7 43.7 342.8 48.3C400 53 457 49 514.2 49.7C571.3 50.3 628.7 55.7 685.8 57C743 58.3 800 55.7 857.2 48.3C914.3 41 971.7 29 1028.8 29.7C1086 30.3 1143 43.7 1200 47C1257 50.3 1314 43.7 1371.2 40.3C1428.3 37 1485.7 37 1542.8 36.3C1600 35.7 1657 34.3 1714.2 35.7C1771.3 37 1828.7 41 1885.8 45C1943 49 2000 53 2057.2 52.3C2114.3 51.7 2171.7 46.3 2228.8 41C2286 35.7 2343 30.3 2371.5 27.7L2400 25L2400 0L2371.5 0C2343 0 2286 0 2228.8 0C2171.7 0 2114.3 0 2057.2 0C2000 0 1943 0 1885.8 0C1828.7 0 1771.3 0 1714.2 0C1657 0 1600 0 1542.8 0C1485.7 0 1428.3 0 1371.2 0C1314 0 1257 0 1200 0C1143 0 1086 0 1028.8 0C971.7 0 914.3 0 857.2 0C800 0 743 0 685.8 0C628.7 0 571.3 0 514.2 0C457 0 400 0 342.8 0C285.7 0 228.3 0 171.2 0C114 0 57 0 28.5 0L0 0Z" fill="#151519"></path><path d="M0 129L28.5 120.3C57 111.7 114 94.3 171.2 94.3C228.3 94.3 285.7 111.7 342.8 113.7C400 115.7 457 102.3 514.2 99.7C571.3 97 628.7 105 685.8 111C743 117 800 121 857.2 115.7C914.3 110.3 971.7 95.7 1028.8 92.3C1086 89 1143 97 1200 103C1257 109 1314 113 1371.2 113.7C1428.3 114.3 1485.7 111.7 1542.8 105.7C1600 99.7 1657 90.3 1714.2 85C1771.3 79.7 1828.7 78.3 1885.8 83C1943 87.7 2000 98.3 2057.2 107C2114.3 115.7 2171.7 122.3 2228.8 121C2286 119.7 2343 110.3 2371.5 105.7L2400 101L2400 23L2371.5 25.7C2343 28.3 2286 33.7 2228.8 39C2171.7 44.3 2114.3 49.7 2057.2 50.3C2000 51 1943 47 1885.8 43C1828.7 39 1771.3 35 1714.2 33.7C1657 32.3 1600 33.7 1542.8 34.3C1485.7 35 1428.3 35 1371.2 38.3C1314 41.7 1257 48.3 1200 45C1143 41.7 1086 28.3 1028.8 27.7C971.7 27 914.3 39 857.2 46.3C800 53.7 743 56.3 685.8 55C628.7 53.7 571.3 48.3 514.2 47.7C457 47 400 51 342.8 46.3C285.7 41.7 228.3 28.3 171.2 25.7C114 23 57 31 28.5 35L0 39Z" fill="#1a1f45"></path><path d="M0 181L28.5 186.3C57 191.7 114 202.3 171.2 207.7C228.3 213 285.7 213 342.8 211C400 209 457 205 514.2 199.7C571.3 194.3 628.7 187.7 685.8 187.7C743 187.7 800 194.3 857.2 195.7C914.3 197 971.7 193 1028.8 203C1086 213 1143 237 1200 249.7C1257 262.3 1314 263.7 1371.2 260.3C1428.3 257 1485.7 249 1542.8 235C1600 221 1657 201 1714.2 191.7C1771.3 182.3 1828.7 183.7 1885.8 182.3C1943 181 2000 177 2057.2 190.3C2114.3 203.7 2171.7 234.3 2228.8 239C2286 243.7 2343 222.3 2371.5 211.7L2400 201L2400 99L2371.5 103.7C2343 108.3 2286 117.7 2228.8 119C2171.7 120.3 2114.3 113.7 2057.2 105C2000 96.3 1943 85.7 1885.8 81C1828.7 76.3 1771.3 77.7 1714.2 83C1657 88.3 1600 97.7 1542.8 103.7C1485.7 109.7 1428.3 112.3 1371.2 111.7C1314 111 1257 107 1200 101C1143 95 1086 87 1028.8 90.3C971.7 93.7 914.3 108.3 857.2 113.7C800 119 743 115 685.8 109C628.7 103 571.3 95 514.2 97.7C457 100.3 400 113.7 342.8 111.7C285.7 109.7 228.3 92.3 171.2 92.3C114 92.3 57 109.7 28.5 118.3L0 127Z" fill="#1b2674"></path><path d="M0 233L28.5 239C57 245 114 257 171.2 261.7C228.3 266.3 285.7 263.7 342.8 259.7C400 255.7 457 250.3 514.2 241C571.3 231.7 628.7 218.3 685.8 218.3C743 218.3 800 231.7 857.2 240.3C914.3 249 971.7 253 1028.8 266.3C1086 279.7 1143 302.3 1200 312.3C1257 322.3 1314 319.7 1371.2 313C1428.3 306.3 1485.7 295.7 1542.8 283C1600 270.3 1657 255.7 1714.2 242.3C1771.3 229 1828.7 217 1885.8 213.7C1943 210.3 2000 215.7 2057.2 230.3C2114.3 245 2171.7 269 2228.8 268.3C2286 267.7 2343 242.3 2371.5 229.7L2400 217L2400 199L2371.5 209.7C2343 220.3 2286 241.7 2228.8 237C2171.7 232.3 2114.3 201.7 2057.2 188.3C2000 175 1943 179 1885.8 180.3C1828.7 181.7 1771.3 180.3 1714.2 189.7C1657 199 1600 219 1542.8 233C1485.7 247 1428.3 255 1371.2 258.3C1314 261.7 1257 260.3 1200 247.7C1143 235 1086 211 1028.8 201C971.7 191 914.3 195 857.2 193.7C800 192.3 743 185.7 685.8 185.7C628.7 185.7 571.3 192.3 514.2 197.7C457 203 400 207 342.8 209C285.7 211 228.3 211 171.2 205.7C114 200.3 57 189.7 28.5 184.3L0 179Z" fill="#272aa4"></path><path d="M0 325L28.5 329.7C57 334.3 114 343.7 171.2 349.7C228.3 355.7 285.7 358.3 342.8 357.7C400 357 457 353 514.2 347C571.3 341 628.7 333 685.8 330.3C743 327.7 800 330.3 857.2 331C914.3 331.7 971.7 330.3 1028.8 336.3C1086 342.3 1143 355.7 1200 361.7C1257 367.7 1314 366.3 1371.2 362.3C1428.3 358.3 1485.7 351.7 1542.8 347C1600 342.3 1657 339.7 1714.2 343.7C1771.3 347.7 1828.7 358.3 1885.8 360.3C1943 362.3 2000 355.7 2057.2 350.3C2114.3 345 2171.7 341 2228.8 338.3C2286 335.7 2343 334.3 2371.5 333.7L2400 333L2400 215L2371.5 227.7C2343 240.3 2286 265.7 2228.8 266.3C2171.7 267 2114.3 243 2057.2 228.3C2000 213.7 1943 208.3 1885.8 211.7C1828.7 215 1771.3 227 1714.2 240.3C1657 253.7 1600 268.3 1542.8 281C1485.7 293.7 1428.3 304.3 1371.2 311C1314 317.7 1257 320.3 1200 310.3C1143 300.3 1086 277.7 1028.8 264.3C971.7 251 914.3 247 857.2 238.3C800 229.7 743 216.3 685.8 216.3C628.7 216.3 571.3 229.7 514.2 239C457 248.3 400 253.7 342.8 257.7C285.7 261.7 228.3 264.3 171.2 259.7C114 255 57 243 28.5 237L0 231Z" fill="#4525d3"></path><path d="M0 401L28.5 401C57 401 114 401 171.2 401C228.3 401 285.7 401 342.8 401C400 401 457 401 514.2 401C571.3 401 628.7 401 685.8 401C743 401 800 401 857.2 401C914.3 401 971.7 401 1028.8 401C1086 401 1143 401 1200 401C1257 401 1314 401 1371.2 401C1428.3 401 1485.7 401 1542.8 401C1600 401 1657 401 1714.2 401C1771.3 401 1828.7 401 1885.8 401C1943 401 2000 401 2057.2 401C2114.3 401 2171.7 401 2228.8 401C2286 401 2343 401 2371.5 401L2400 401L2400 331L2371.5 331.7C2343 332.3 2286 333.7 2228.8 336.3C2171.7 339 2114.3 343 2057.2 348.3C2000 353.7 1943 360.3 1885.8 358.3C1828.7 356.3 1771.3 345.7 1714.2 341.7C1657 337.7 1600 340.3 1542.8 345C1485.7 349.7 1428.3 356.3 1371.2 360.3C1314 364.3 1257 365.7 1200 359.7C1143 353.7 1086 340.3 1028.8 334.3C971.7 328.3 914.3 329.7 857.2 329C800 328.3 743 325.7 685.8 328.3C628.7 331 571.3 339 514.2 345C457 351 400 355 342.8 355.7C285.7 356.3 228.3 353.7 171.2 347.7C114 341.7 57 332.3 28.5 327.7L0 323Z" fill="#6f00ff"></path></svg>