<svg id="visual" viewBox="0 0 2400 400" width="2400" height="400" xmlns="http://www.w3.org/2000/svg" xmlns:xlink="http://www.w3.org/1999/xlink" version="1.1"><path d="M0 165L28.5 163C57 161 114 157 171.2 141.7C228.3 126.3 285.7 99.7 342.8 87C400 74.3 457 75.7 514.2 83.7C571.3 91.7 628.7 106.3 685.8 113.7C743 121 800 121 857.2 126.3C914.3 131.7 971.7 142.3 1028.8 134.3C1086 126.3 1143 99.7 1200 83C1257 66.3 1314 59.7 1371.2 62.3C1428.3 65 1485.7 77 1542.8 73.7C1600 70.3 1657 51.7 1714.2 57.7C1771.3 63.7 1828.7 94.3 1885.8 111.7C1943 129 2000 133 2057.2 131C2114.3 129 2171.7 121 2228.8 108.3C2286 95.7 2343 78.3 2371.5 69.7L2400 61L2400 0L2371.5 0C2343 0 2286 0 2228.8 0C2171.7 0 2114.3 0 2057.2 0C2000 0 1943 0 1885.8 0C1828.7 0 1771.3 0 1714.2 0C1657 0 1600 0 1542.8 0C1485.7 0 1428.3 0 1371.2 0C1314 0 1257 0 1200 0C1143 0 1086 0 1028.8 0C971.7 0 914.3 0 857.2 0C800 0 743 0 685.8 0C628.7 0 571.3 0 514.2 0C457 0 400 0 342.8 0C285.7 0 228.3 0 171.2 0C114 0 57 0 28.5 0L0 0Z" fill="#151519"></path><path d="M0 205L28.5 199.7C57 194.3 114 183.7 171.2 169.7C228.3 155.7 285.7 138.3 342.8 131.7C400 125 457 129 514.2 133C571.3 137 628.7 141 685.8 147C743 153 800 161 857.2 167.7C914.3 174.3 971.7 179.7 1028.8 168.3C1086 157 1143 129 1200 110.3C1257 91.7 1314 82.3 1371.2 85C1428.3 87.7 1485.7 102.3 1542.8 101C1600 99.7 1657 82.3 1714.2 87.7C1771.3 93 1828.7 121 1885.8 139.7C1943 158.3 2000 167.7 2057.2 169.7C2114.3 171.7 2171.7 166.3 2228.8 154.3C2286 142.3 2343 123.7 2371.5 114.3L2400 105L2400 59L2371.5 67.7C2343 76.3 2286 93.7 2228.8 106.3C2171.7 119 2114.3 127 2057.2 129C2000 131 1943 127 1885.8 109.7C1828.7 92.3 1771.3 61.7 1714.2 55.7C1657 49.7 1600 68.3 1542.8 71.7C1485.7 75 1428.3 63 1371.2 60.3C1314 57.7 1257 64.3 1200 81C1143 97.7 1086 124.3 1028.8 132.3C971.7 140.3 914.3 129.7 857.2 124.3C800 119 743 119 685.8 111.7C628.7 104.3 571.3 89.7 514.2 81.7C457 73.7 400 72.3 342.8 85C285.7 97.7 228.3 124.3 171.2 139.7C114 155 57 159 28.5 161L0 163Z" fill="#1a1f45"></path><path d="M0 265L28.5 257C57 249 114 233 171.2 233C228.3 233 285.7 249 342.8 247C400 245 457 225 514.2 220.3C571.3 215.7 628.7 226.3 685.8 235C743 243.7 800 250.3 857.2 257C914.3 263.7 971.7 270.3 1028.8 273.7C1086 277 1143 277 1200 267.7C1257 258.3 1314 239.7 1371.2 237C1428.3 234.3 1485.7 247.7 1542.8 245.7C1600 243.7 1657 226.3 1714.2 223C1771.3 219.7 1828.7 230.3 1885.8 233.7C1943 237 2000 233 2057.2 240.3C2114.3 247.7 2171.7 266.3 2228.8 271C2286 275.7 2343 266.3 2371.5 261.7L2400 257L2400 103L2371.5 112.3C2343 121.7 2286 140.3 2228.8 152.3C2171.7 164.3 2114.3 169.7 2057.2 167.7C2000 165.7 1943 156.3 1885.8 137.7C1828.7 119 1771.3 91 1714.2 85.7C1657 80.3 1600 97.7 1542.8 99C1485.7 100.3 1428.3 85.7 1371.2 83C1314 80.3 1257 89.7 1200 108.3C1143 127 1086 155 1028.8 166.3C971.7 177.7 914.3 172.3 857.2 165.7C800 159 743 151 685.8 145C628.7 139 571.3 135 514.2 131C457 127 400 123 342.8 129.7C285.7 136.3 228.3 153.7 171.2 167.7C114 181.7 57 192.3 28.5 197.7L0 203Z" fill="#1b2674"></path><path d="M0 293L28.5 293.7C57 294.3 114 295.7 171.2 299C228.3 302.3 285.7 307.7 342.8 305C400 302.3 457 291.7 514.2 288.3C571.3 285 628.7 289 685.8 291C743 293 800 293 857.2 295.7C914.3 298.3 971.7 303.7 1028.8 306.3C1086 309 1143 309 1200 308.3C1257 307.7 1314 306.3 1371.2 304.3C1428.3 302.3 1485.7 299.7 1542.8 299C1600 298.3 1657 299.7 1714.2 305C1771.3 310.3 1828.7 319.7 1885.8 324.3C1943 329 2000 329 2057.2 331.7C2114.3 334.3 2171.7 339.7 2228.8 341.7C2286 343.7 2343 342.3 2371.5 341.7L2400 341L2400 255L2371.5 259.7C2343 264.3 2286 273.7 2228.8 269C2171.7 264.3 2114.3 245.7 2057.2 238.3C2000 231 1943 235 1885.8 231.7C1828.7 228.3 1771.3 217.7 1714.2 221C1657 224.3 1600 241.7 1542.8 243.7C1485.7 245.7 1428.3 232.3 1371.2 235C1314 237.7 1257 256.3 1200 265.7C1143 275 1086 275 1028.8 271.7C971.7 268.3 914.3 261.7 857.2 255C800 248.3 743 241.7 685.8 233C628.7 224.3 571.3 213.7 514.2 218.3C457 223 400 243 342.8 245C285.7 247 228.3 231 171.2 231C114 231 57 247 28.5 255L0 263Z" fill="#272aa4"></path><path d="M0 321L28.5 320.3C57 319.7 114 318.3 171.2 326.3C228.3 334.3 285.7 351.7 342.8 353C400 354.3 457 339.7 514.2 335.7C571.3 331.7 628.7 338.3 685.8 341C743 343.7 800 342.3 857.2 343C914.3 343.7 971.7 346.3 1028.8 344.3C1086 342.3 1143 335.7 1200 337.7C1257 339.7 1314 350.3 1371.2 352.3C1428.3 354.3 1485.7 347.7 1542.8 346.3C1600 345 1657 349 1714.2 354.3C1771.3 359.7 1828.7 366.3 1885.8 365C1943 363.7 2000 354.3 2057.2 353.7C2114.3 353 2171.7 361 2228.8 367C2286 373 2343 377 2371.5 379L2400 381L2400 339L2371.5 339.7C2343 340.3 2286 341.7 2228.8 339.7C2171.7 337.7 2114.3 332.3 2057.2 329.7C2000 327 1943 327 1885.8 322.3C1828.7 317.7 1771.3 308.3 1714.2 303C1657 297.7 1600 296.3 1542.8 297C1485.7 297.7 1428.3 300.3 1371.2 302.3C1314 304.3 1257 305.7 1200 306.3C1143 307 1086 307 1028.8 304.3C971.7 301.7 914.3 296.3 857.2 293.7C800 291 743 291 685.8 289C628.7 287 571.3 283 514.2 286.3C457 289.7 400 300.3 342.8 303C285.7 305.7 228.3 300.3 171.2 297C114 293.7 57 292.3 28.5 291.7L0 291Z" fill="#4525d3"></path><path d="M0 401L28.5 401C57 401 114 401 171.2 401C228.3 401 285.7 401 342.8 401C400 401 457 401 514.2 401C571.3 401 628.7 401 685.8 401C743 401 800 401 857.2 401C914.3 401 971.7 401 1028.8 401C1086 401 1143 401 1200 401C1257 401 1314 401 1371.2 401C1428.3 401 1485.7 401 1542.8 401C1600 401 1657 401 1714.2 401C1771.3 401 1828.7 401 1885.8 401C1943 401 2000 401 2057.2 401C2114.3 401 2171.7 401 2228.8 401C2286 401 2343 401 2371.5 401L2400 401L2400 379L2371.5 377C2343 375 2286 371 2228.8 365C2171.7 359 2114.3 351 2057.2 351.7C2000 352.3 1943 361.7 1885.8 363C1828.7 364.3 1771.3 357.7 1714.2 352.3C1657 347 1600 343 1542.8 344.3C1485.7 345.7 1428.3 352.3 1371.2 350.3C1314 348.3 1257 337.7 1200 335.7C1143 333.7 1086 340.3 1028.8 342.3C971.7 344.3 914.3 341.7 857.2 341C800 340.3 743 341.7 685.8 339C628.7 336.3 571.3 329.7 514.2 333.7C457 337.7 400 352.3 342.8 351C285.7 349.7 228.3 332.3 171.2 324.3C114 316.3 57 317.7 28.5 318.3L0 319Z" fill="#6f00ff"></path></svg>