<svg id="visual" viewBox="0 0 2400 400" width="2400" height="400" xmlns="http://www.w3.org/2000/svg" xmlns:xlink="http://www.w3.org/1999/xlink" version="1.1"><path d="M0 29L28.5 27C57 25 114 21 171.2 22.3C228.3 23.7 285.7 30.3 342.8 37C400 43.7 457 50.3 514.2 54.3C571.3 58.3 628.7 59.7 685.8 57.7C743 55.7 800 50.3 857.2 47C914.3 43.7 971.7 42.3 1028.8 41.7C1086 41 1143 41 1200 41.7C1257 42.3 1314 43.7 1371.2 40.3C1428.3 37 1485.7 29 1542.8 31C1600 33 1657 45 1714.2 47.7C1771.3 50.3 1828.7 43.7 1885.8 37C1943 30.3 2000 23.7 2057.2 21.7C2114.3 19.7 2171.7 22.3 2228.8 22.3C2286 22.3 2343 19.7 2371.5 18.3L2400 17L2400 0L2371.5 0C2343 0 2286 0 2228.8 0C2171.7 0 2114.3 0 2057.2 0C2000 0 1943 0 1885.8 0C1828.7 0 1771.3 0 1714.2 0C1657 0 1600 0 1542.8 0C1485.7 0 1428.3 0 1371.2 0C1314 0 1257 0 1200 0C1143 0 1086 0 1028.8 0C971.7 0 914.3 0 857.2 0C800 0 743 0 685.8 0C628.7 0 571.3 0 514.2 0C457 0 400 0 342.8 0C285.7 0 228.3 0 171.2 0C114 0 57 0 28.5 0L0 0Z" fill="#151519"></path><path d="M0 77L28.5 71.7C57 66.3 114 55.7 171.2 62.3C228.3 69 285.7 93 342.8 107C400 121 457 125 514.2 122.3C571.3 119.7 628.7 110.3 685.8 103.7C743 97 800 93 857.2 93.7C914.3 94.3 971.7 99.7 1028.8 97.7C1086 95.7 1143 86.3 1200 89.7C1257 93 1314 109 1371.2 109.7C1428.3 110.3 1485.7 95.7 1542.8 95.7C1600 95.7 1657 110.3 1714.2 109.7C1771.3 109 1828.7 93 1885.8 84.3C1943 75.7 2000 74.3 2057.2 75.7C2114.3 77 2171.7 81 2228.8 75C2286 69 2343 53 2371.5 45L2400 37L2400 15L2371.5 16.3C2343 17.7 2286 20.3 2228.8 20.3C2171.7 20.3 2114.3 17.7 2057.2 19.7C2000 21.7 1943 28.3 1885.8 35C1828.7 41.7 1771.3 48.3 1714.2 45.7C1657 43 1600 31 1542.8 29C1485.7 27 1428.3 35 1371.2 38.3C1314 41.7 1257 40.3 1200 39.7C1143 39 1086 39 1028.8 39.7C971.7 40.3 914.3 41.7 857.2 45C800 48.3 743 53.7 685.8 55.7C628.7 57.7 571.3 56.3 514.2 52.3C457 48.3 400 41.7 342.8 35C285.7 28.3 228.3 21.7 171.2 20.3C114 19 57 23 28.5 25L0 27Z" fill="#1a1f45"></path><path d="M0 165L28.5 165.7C57 166.3 114 167.7 171.2 167.7C228.3 167.7 285.7 166.3 342.8 165.7C400 165 457 165 514.2 161.7C571.3 158.3 628.7 151.7 685.8 155.7C743 159.7 800 174.3 857.2 176.3C914.3 178.3 971.7 167.7 1028.8 162.3C1086 157 1143 157 1200 163.7C1257 170.3 1314 183.7 1371.2 175.7C1428.3 167.7 1485.7 138.3 1542.8 135C1600 131.7 1657 154.3 1714.2 165C1771.3 175.7 1828.7 174.3 1885.8 165.7C1943 157 2000 141 2057.2 141.7C2114.3 142.3 2171.7 159.7 2228.8 152.3C2286 145 2343 113 2371.5 97L2400 81L2400 35L2371.5 43C2343 51 2286 67 2228.8 73C2171.7 79 2114.3 75 2057.2 73.7C2000 72.3 1943 73.7 1885.8 82.3C1828.7 91 1771.3 107 1714.2 107.7C1657 108.3 1600 93.7 1542.8 93.7C1485.7 93.7 1428.3 108.3 1371.2 107.7C1314 107 1257 91 1200 87.7C1143 84.3 1086 93.7 1028.8 95.7C971.7 97.7 914.3 92.3 857.2 91.7C800 91 743 95 685.8 101.7C628.7 108.3 571.3 117.7 514.2 120.3C457 123 400 119 342.8 105C285.7 91 228.3 67 171.2 60.3C114 53.7 57 64.3 28.5 69.7L0 75Z" fill="#1b2674"></path><path d="M0 225L28.5 221C57 217 114 209 171.2 206.3C228.3 203.7 285.7 206.3 342.8 208.3C400 210.3 457 211.7 514.2 209C571.3 206.3 628.7 199.7 685.8 199.7C743 199.7 800 206.3 857.2 208.3C914.3 210.3 971.7 207.7 1028.8 209C1086 210.3 1143 215.7 1200 217C1257 218.3 1314 215.7 1371.2 202.3C1428.3 189 1485.7 165 1542.8 168.3C1600 171.7 1657 202.3 1714.2 213C1771.3 223.7 1828.7 214.3 1885.8 201.7C1943 189 2000 173 2057.2 177.7C2114.3 182.3 2171.7 207.7 2228.8 206.3C2286 205 2343 177 2371.5 163L2400 149L2400 79L2371.5 95C2343 111 2286 143 2228.8 150.3C2171.7 157.7 2114.3 140.3 2057.2 139.7C2000 139 1943 155 1885.8 163.7C1828.7 172.3 1771.3 173.7 1714.2 163C1657 152.3 1600 129.7 1542.8 133C1485.7 136.3 1428.3 165.7 1371.2 173.7C1314 181.7 1257 168.3 1200 161.7C1143 155 1086 155 1028.8 160.3C971.7 165.7 914.3 176.3 857.2 174.3C800 172.3 743 157.7 685.8 153.7C628.7 149.7 571.3 156.3 514.2 159.7C457 163 400 163 342.8 163.7C285.7 164.3 228.3 165.7 171.2 165.7C114 165.7 57 164.3 28.5 163.7L0 163Z" fill="#272aa4"></path><path d="M0 329L28.5 327C57 325 114 321 171.2 319.7C228.3 318.3 285.7 319.7 342.8 314.3C400 309 457 297 514.2 298.3C571.3 299.7 628.7 314.3 685.8 322.3C743 330.3 800 331.7 857.2 323.7C914.3 315.7 971.7 298.3 1028.8 301C1086 303.7 1143 326.3 1200 331C1257 335.7 1314 322.3 1371.2 298.3C1428.3 274.3 1485.7 239.7 1542.8 237.7C1600 235.7 1657 266.3 1714.2 287C1771.3 307.7 1828.7 318.3 1885.8 321.7C1943 325 2000 321 2057.2 318.3C2114.3 315.7 2171.7 314.3 2228.8 296.3C2286 278.3 2343 243.7 2371.5 226.3L2400 209L2400 147L2371.5 161C2343 175 2286 203 2228.8 204.3C2171.7 205.7 2114.3 180.3 2057.2 175.7C2000 171 1943 187 1885.8 199.7C1828.7 212.3 1771.3 221.7 1714.2 211C1657 200.3 1600 169.7 1542.8 166.3C1485.7 163 1428.3 187 1371.2 200.3C1314 213.7 1257 216.3 1200 215C1143 213.7 1086 208.3 1028.8 207C971.7 205.7 914.3 208.3 857.2 206.3C800 204.3 743 197.7 685.8 197.7C628.7 197.7 571.3 204.3 514.2 207C457 209.7 400 208.3 342.8 206.3C285.7 204.3 228.3 201.7 171.2 204.3C114 207 57 215 28.5 219L0 223Z" fill="#4525d3"></path><path d="M0 401L28.5 401C57 401 114 401 171.2 401C228.3 401 285.7 401 342.8 401C400 401 457 401 514.2 401C571.3 401 628.7 401 685.8 401C743 401 800 401 857.2 401C914.3 401 971.7 401 1028.8 401C1086 401 1143 401 1200 401C1257 401 1314 401 1371.2 401C1428.3 401 1485.7 401 1542.8 401C1600 401 1657 401 1714.2 401C1771.3 401 1828.7 401 1885.8 401C1943 401 2000 401 2057.2 401C2114.3 401 2171.7 401 2228.8 401C2286 401 2343 401 2371.5 401L2400 401L2400 207L2371.5 224.3C2343 241.7 2286 276.3 2228.8 294.3C2171.7 312.3 2114.3 313.7 2057.2 316.3C2000 319 1943 323 1885.8 319.7C1828.7 316.3 1771.3 305.7 1714.2 285C1657 264.3 1600 233.7 1542.8 235.7C1485.7 237.7 1428.3 272.3 1371.2 296.3C1314 320.3 1257 333.7 1200 329C1143 324.3 1086 301.7 1028.8 299C971.7 296.3 914.3 313.7 857.2 321.7C800 329.7 743 328.3 685.8 320.3C628.7 312.3 571.3 297.7 514.2 296.3C457 295 400 307 342.8 312.3C285.7 317.7 228.3 316.3 171.2 317.7C114 319 57 323 28.5 325L0 327Z" fill="#6f00ff"></path></svg>